<?xml version="1.0" encoding="utf-8"?>
<!-- Uploaded to: SVG Repo, www.svgrepo.com, Generator: SVG Repo Mixer Tools -->
<svg width="800px" height="800px" viewBox="0 0 48 48" fill="none" xmlns="http://www.w3.org/2000/svg">
<g id="arrow right">
<g id="arrow right_2">
<path id="Combined Shape" fill-rule="evenodd" clip-rule="evenodd" d="M42.6219 21.4817C44.3679 22.6727 44.3679 25.2469 42.6219 26.4379L23.6271 39.3964C21.6354 40.7522 18.9364 39.3271 18.9364 36.9178V22.9602H6.99979C6.44807 22.9602 5.99979 23.4085 5.99979 23.9602C5.99979 24.5119 6.44807 24.9602 6.99979 24.9602H14.8278C15.3801 24.9602 15.8278 25.4079 15.8278 25.9602C15.8278 26.5125 15.3801 26.9602 14.8278 26.9602H6.99979C5.3435 26.9602 3.99979 25.6165 3.99979 23.9602C3.99979 22.3039 5.3435 20.9602 6.99979 20.9602H18.9364V11.0038C18.9364 8.59302 21.635 7.16706 23.6279 8.52372L42.6219 21.4817ZM20.9364 20.9602V11.0038C20.9364 10.1997 21.8369 9.72388 22.5017 10.1764L41.4949 23.1339C42.0769 23.5309 42.0769 24.3887 41.4949 24.7857L22.5008 37.7437C21.837 38.1956 20.9364 37.7201 20.9364 36.9178V22.9602H25.9518C26.5041 22.9602 26.9518 22.5125 26.9518 21.9602C26.9518 21.4079 26.5041 20.9602 25.9518 20.9602H20.9364Z" fill="#000000"/>
</g>
</g>
</svg>