<?xml version="1.0"?>
<svg width="461.941" height="461.941" xmlns="http://www.w3.org/2000/svg" xmlns:svg="http://www.w3.org/2000/svg" version="1.1" xml:space="preserve">
 <g class="layer">
  <title>Layer 1</title>
  <g id="SVGRepo_bgCarrier" stroke-width="0"/>
  <g id="SVGRepo_tracerCarrier" stroke-linecap="round" stroke-linejoin="round"/>
  <g id="SVGRepo_iconCarrier">
   <g id="svg_1">
    <path d="m94.42,143.11c8.82,-8.82 23.17,-8.82 31.99,0c24.42,24.42 64.15,24.42 88.56,0c4.28,-4.27 9.96,-6.62 16,-6.62s11.72,2.35 16,6.62c24.41,24.42 64.14,24.42 88.56,0c4.27,-4.27 9.95,-6.62 16,-6.62s11.72,2.35 15.99,6.62c11.83,11.83 27.56,18.34 44.28,18.34c16.73,0 32.46,-6.51 44.28,-18.34c7.81,-7.81 7.81,-20.47 0,-28.28c-7.81,-7.81 -20.47,-7.81 -28.28,0c-4.27,4.27 -9.95,6.63 -16,6.63s-11.72,-2.36 -15.99,-6.63c-11.83,-11.83 -27.56,-18.34 -44.28,-18.34c0,0 0,0 0,0c-16.73,0 -32.46,6.51 -44.28,18.34c-8.82,8.82 -23.18,8.82 -32,0c-11.82,-11.83 -27.55,-18.34 -44.28,-18.34c0,0 0,0 0,0c-16.72,0 -32.45,6.51 -44.28,18.34c-8.82,8.82 -23.17,8.82 -31.99,0c-24.42,-24.42 -64.15,-24.42 -88.56,0c-8.82,8.82 -23.17,8.82 -32,0c-7.81,-7.81 -20.47,-7.81 -28.28,0s-7.81,20.47 0,28.28c24.41,24.42 64.14,24.42 88.56,0z" id="svg_2"/>
   </g>
  </g>
 </g>
</svg>